<?xml version="1.0" encoding="UTF-8" standalone="no"?>
<!-- Created with Inkscape (http://www.inkscape.org/) -->

<svg
   xmlns:dc="http://purl.org/dc/elements/1.1/"
   xmlns:cc="http://creativecommons.org/ns#"
   xmlns:rdf="http://www.w3.org/1999/02/22-rdf-syntax-ns#"
   xmlns:svg="http://www.w3.org/2000/svg"
   xmlns="http://www.w3.org/2000/svg"
   xmlns:sodipodi="http://sodipodi.sourceforge.net/DTD/sodipodi-0.dtd"
   xmlns:inkscape="http://www.inkscape.org/namespaces/inkscape"
   width="744.09448819"
   height="1052.3622047"
   id="svg3861"
   version="1.1"
   inkscape:version="0.48.4 r"
   sodipodi:docname="nanocon.svg">
  <defs
     id="defs3863" />
  <sodipodi:namedview
     id="base"
     pagecolor="#ffffff"
     bordercolor="#666666"
     borderopacity="1.0"
     inkscape:pageopacity="0.0"
     inkscape:pageshadow="2"
     inkscape:zoom="0.35"
     inkscape:cx="310.29795"
     inkscape:cy="520"
     inkscape:document-units="px"
     inkscape:current-layer="layer1"
     showgrid="false"
     showborder="false"
     inkscape:showpageshadow="false"
     inkscape:window-width="1378"
     inkscape:window-height="878"
     inkscape:window-x="54"
     inkscape:window-y="-8"
     inkscape:window-maximized="1" />
  <metadata
     id="metadata3866">
    <rdf:RDF>
      <cc:Work
         rdf:about="">
        <dc:format>image/svg+xml</dc:format>
        <dc:type
           rdf:resource="http://purl.org/dc/dcmitype/StillImage" />
        <dc:title></dc:title>
      </cc:Work>
    </rdf:RDF>
  </metadata>
  <g
     inkscape:label="Layer 1"
     inkscape:groupmode="layer"
     id="layer1">
    <path
       style="fill:#ffffff;stroke:#000000;stroke-width:8;stroke-linecap:butt;stroke-linejoin:miter;stroke-miterlimit:4;stroke-opacity:1;stroke-dasharray:none;fill-opacity:1"
       d="m -180.8362,614.13563 c -18.64515,17.3111 -44.3807,24.2628 -60.35714,24.2857 -44.84968,0.064 -79.15843,-27.0058 -86.07143,-57.8571 -10.28847,-29.2858 -9.88989,-58.5715 -5,-87.8572 7.59295,-34.6291 23.86834,-59.3916 46.42857,-72.5 18.08484,-10.508 42.13536,-21.5659 78.92857,-13.2143 40.75598,9.2512 65.35222,65.5736 66.42857,92.8572 l -1.07143,166.0714 c -0.22655,35.1156 49.64287,34.8691 49.64287,1.4286 l -1e-5,-171.7857 c 0,-35.7749 -17.93162,-74.4826 -39.28571,-96.7858 -20.49212,-21.4029 -44.80125,-33.417 -82.85715,-37.5 -37.30678,-4.0025 -62.51741,1.6511 -89.28571,15 -25.68828,12.8104 -46.65981,35.3567 -60,65.7143 -27.08909,61.6454 -26.72734,130.1708 3.57143,182.8572 16.22303,28.2101 41.13264,45.059 72.85714,55 22.67094,7.104 45.5198,13.3835 73.92857,7.8571 21.53177,-4.1886 34.17883,-9.4472 47.85715,-20 13.12566,-10.1264 26.20075,-24.4307 23.21428,-35.3571 -6.76335,-24.7447 -28.85298,-27.569 -38.92857,-18.2143 z"
       id="path3782-9"
       inkscape:connector-curvature="0"
       sodipodi:nodetypes="ssccsscsssssssssssss" />
    <a
       id="a3814-7"
       transform="translate(-200.87797,-175.50276)"
       style="stroke:#000000;stroke-opacity:1;fill:#ffffff;fill-opacity:1">
      <path
         sodipodi:nodetypes="ssssssssccccs"
         inkscape:connector-curvature="0"
         id="path3810-0"
         d="m -427.5,845.66959 c -0.28237,32.14823 -52.0352,36.77081 -52.22364,0 l -0.99065,-193.30741 c -0.31973,-62.38902 59.23079,-120.93179 114.28572,-120.53571 16.54762,0.11905 49.64286,0 49.64286,0 55.70026,0.40072 115.87174,52.74168 116.42857,120.89286 l 1.57651,192.95026 c 0.26353,32.25451 -51.93366,30.91497 -51.93366,0 0,-64.7619 0,-192.59312 0,-192.59312 -3.18989,-21.8001 -15.5201,-49.67271 -53.92857,-70 -41.34113,-11.10649 -54.52352,-4.74474 -70,-1.07143 -27.52809,7.05044 -44.47062,24.7695 -51.07143,60.35714 z"
         style="fill:#ffffff;stroke:#000000;stroke-width:8;stroke-linecap:butt;stroke-linejoin:miter;stroke-miterlimit:4;stroke-opacity:1;stroke-dasharray:none;fill-opacity:1" />
    </a>
    <path
       style="fill:#ffffff;stroke:#000000;stroke-width:8;stroke-linecap:butt;stroke-linejoin:miter;stroke-miterlimit:4;stroke-opacity:1;stroke-dasharray:none;fill-opacity:1"
       d="m 289.02651,570.84961 c -15.87746,-35.1685 -56.06505,-17.212 -48.9924,13.1319 6.87679,23.1146 4.84802,40.9919 41.92132,73.4886 32.63333,28.6049 67.16843,38.919 104.80333,35.8605 44.75529,-3.6373 78.09909,-24.4244 98.23729,-47.7297 20.2898,-23.4807 30.0958,-54.7036 33.3351,-93.9442 3.1474,-38.1288 0.4776,-71.4252 -11.2343,-103.9845 -13.8708,-38.5612 -35.8916,-53.9265 -56.6911,-67.7415 -31.2821,-20.7776 -71.32159,-22.5892 -90.41599,-20.9606 -28.3311,2.4163 -50.64469,15.2705 -66.92264,28.0317 -26.65884,20.8994 -40.15891,41.8983 -48.48732,64.6498 -24.26568,66.2887 41.30718,63.6889 44.44671,34.3452 4.71835,-44.1003 27.88195,-60.1867 47.47715,-71.7209 21.7143,-12.7815 43.9581,-11.6834 61.6193,-6.0609 29.29919,9.3275 44.81159,25.4923 52.52799,41.4163 13.6345,28.1372 19.447,57.8866 16.1624,88.8934 -2.5681,24.243 -5.9733,45.6216 -15.1523,61.6193 -12.3612,21.5438 -26.7207,32.7623 -48.48729,39.3959 -31.1589,9.4961 -61.9535,0.1091 -79.8633,-14.6165 -26.71229,-21.9631 -27.80647,-37.5547 -34.28395,-54.0738 z"
       id="path3821-2"
       inkscape:connector-curvature="0"
       sodipodi:nodetypes="ccsssssssssssssssssc" />
    <path
       id="path3825-0"
       style="fill:#ffffff;stroke:#000000;stroke-width:8;stroke-linecap:butt;stroke-linejoin:miter;stroke-miterlimit:4;stroke-opacity:1;stroke-dasharray:none;fill-opacity:1"
       d="m 944.97266,415.08429 c 21.7142,-12.7815 43.9581,-11.6834 61.61934,-6.0609 29.2991,9.3275 44.8115,25.4923 52.5279,41.4163 13.6346,28.1372 19.09,60.3866 15.8054,91.3934 -2.5681,24.243 -5.9733,45.6217 -15.1523,61.6193 -12.3613,21.5438 -26.7208,30.9766 -48.4874,37.6102 -31.15884,9.4961 -49.74864,3.8697 -68.07764,-10.3308 -21.6825,-16.7987 -24.2003,-29.9829 -27.4982,-43.0024 -8.0142,-31.6384 -56.168,-20.0626 -50.5077,13.132 4.0537,23.7727 6.942,33.5075 37.2426,63.6798 26.1478,26.0372 59.9649,32.5733 98.32104,29.8249 44.7879,-3.2092 72.204,-22.1515 92.3423,-45.4568 20.2897,-23.4806 30.0958,-54.7036 33.335,-93.9442 3.1475,-38.1288 1.8722,-72.237 -9.0913,-105.0559 -12.9845,-38.8686 -33.0179,-52.8164 -55.2625,-67.7415 -31.4658,-21.112 -65.11154,-25.5301 -94.34474,-21.6749 -28.1898,3.7175 -50.6446,15.2705 -66.9226,28.0317 -26.6588,20.8994 -39.1139,41.6698 -49.5588,63.9355 -28.8138,61.4231 -35.5929,76.5815 -49.2115,102.7257 -9.9482,19.098 -31.587,47.277 -58.2993,69.2401 -17.9099,14.7256 -60.4902,25.8983 -91.649,16.4022 -21.7666,-6.6336 -36.1262,-17.8521 -48.48741,-39.3959 -9.1791,-15.9977 -12.5842,-37.3763 -15.1523,-61.6193 -3.2847,-31.0068 0.5267,-59.331 13.3053,-87.822 7.1772,-16.0021 21.08591,-35.6602 50.38511,-44.9877 50.2834,-14.9003 99.523,17.2226 102.3107,57.0675 2.1943,48.2185 59.5216,38.2669 51.9468,-10.0595 -2.1137,-13.4851 -13.0739,-47.0916 -40.6302,-66.7926 -17.4826,-12.499 -25.7966,-24.4816 -75.494,-29.1032 -29.3597,-2.7303 -59.6765,2.0351 -89.70181,23.1035 -20.4396,14.3422 -40.1352,28.8729 -53.1198,67.7415 -10.9635,32.8189 -13.6673,65.8557 -10.5198,103.9845 3.2392,39.2406 13.0452,70.4635 33.335,93.9442 20.1383,23.3053 46.15841,43.2482 90.91371,46.8854 37.6349,3.0585 74.0558,0.4348 112.6067,-29.4678 38.9547,-30.2158 49.3318,-46.2597 60.814,-67.9655 19.2529,-36.3956 29.4167,-60.6858 37.4363,-79.5483 37.9861,-89.3454 53.3259,-90.1742 72.9211,-101.7085 z"
       inkscape:connector-curvature="0"
       sodipodi:nodetypes="ssssssssssssssssssssssssccssssssssssss" />
    <a
       transform="translate(413.29475,-175.50276)"
       id="a3834-8"
       style="stroke:#000000;stroke-opacity:1;fill:#ffffff;fill-opacity:1">
      <path
         style="fill:#ffffff;stroke:#000000;stroke-width:8;stroke-linecap:butt;stroke-linejoin:miter;stroke-miterlimit:4;stroke-opacity:1;stroke-dasharray:none;fill-opacity:1"
         d="m -427.5,845.66959 c -0.28237,32.14823 -52.0352,36.77081 -52.22364,0 l -0.99065,-193.30741 c -0.31973,-62.38902 59.23079,-120.93179 114.28572,-120.53571 16.54762,0.11905 49.64286,0 49.64286,0 55.70026,0.40072 115.87174,52.74168 116.42857,120.89286 l 1.57651,192.95026 c 0.26353,32.25451 -51.93366,30.91497 -51.93366,0 0,-64.7619 0,-192.59312 0,-192.59312 -3.18989,-21.8001 -15.5201,-49.67271 -53.92857,-70 -41.34113,-11.10649 -54.52352,-4.74474 -70,-1.07143 -27.52809,7.05044 -44.47062,24.7695 -51.07143,60.35714 z"
         id="path3836-8"
         inkscape:connector-curvature="0"
         sodipodi:nodetypes="ssssssssccccs" />
    </a>
    <a
       id="a3838-3"
       transform="translate(1624.4677,-175.50276)"
       style="stroke:#000000;stroke-opacity:1;fill:#ffffff;fill-opacity:1">
      <path
         sodipodi:nodetypes="ssssssssccccs"
         inkscape:connector-curvature="0"
         id="path3840-9"
         d="m -427.5,845.66959 c -0.28237,32.14823 -52.0352,36.77081 -52.22364,0 l -0.99065,-193.30741 c -0.31973,-62.38902 59.23079,-120.93179 114.28572,-120.53571 16.54762,0.11905 49.64286,0 49.64286,0 55.70026,0.40072 115.87174,52.74168 116.42857,120.89286 l 1.57651,192.95026 c 0.26353,32.25451 -51.93366,30.91497 -51.93366,0 0,-64.7619 0,-192.59312 0,-192.59312 -3.18989,-21.8001 -15.5201,-49.67271 -53.92857,-70 -41.34113,-11.10649 -54.52352,-4.74474 -70,-1.07143 -27.52809,7.05044 -44.47062,24.7695 -51.07143,60.35714 z"
         style="fill:#ffffff;stroke:#000000;stroke-width:8;stroke-linecap:butt;stroke-linejoin:miter;stroke-miterlimit:4;stroke-opacity:1;stroke-dasharray:none;fill-opacity:1" />
    </a>
  </g>
</svg>
