<?xml version="1.0" encoding="UTF-8" standalone="no"?>
<!-- Created with Inkscape (http://www.inkscape.org/) -->

<svg
   xmlns:dc="http://purl.org/dc/elements/1.1/"
   xmlns:cc="http://creativecommons.org/ns#"
   xmlns:rdf="http://www.w3.org/1999/02/22-rdf-syntax-ns#"
   xmlns:svg="http://www.w3.org/2000/svg"
   xmlns="http://www.w3.org/2000/svg"
   xmlns:sodipodi="http://sodipodi.sourceforge.net/DTD/sodipodi-0.dtd"
   xmlns:inkscape="http://www.inkscape.org/namespaces/inkscape"
   width="2000"
   height="1500"
   viewBox="0 0 529.16666 396.87501"
   version="1.1"
   id="svg8"
   inkscape:version="0.92.1 r15371"
   sodipodi:docname="Nanocon Text Logo.svg">
  <defs
     id="defs2" />
  <sodipodi:namedview
     id="base"
     pagecolor="#ffffff"
     bordercolor="#666666"
     borderopacity="1.0"
     inkscape:pageopacity="0.0"
     inkscape:pageshadow="2"
     inkscape:zoom="0.35"
     inkscape:cx="844.71401"
     inkscape:cy="702.78304"
     inkscape:document-units="mm"
     inkscape:current-layer="layer1"
     showgrid="false"
     inkscape:window-width="1440"
     inkscape:window-height="847"
     inkscape:window-x="-8"
     inkscape:window-y="-8"
     inkscape:window-maximized="1"
     inkscape:snap-object-midpoints="false"
     units="px"
     scale-x="1"
     showguides="false" />
  <metadata
     id="metadata5">
    <rdf:RDF>
      <cc:Work
         rdf:about="">
        <dc:format>image/svg+xml</dc:format>
        <dc:type
           rdf:resource="http://purl.org/dc/dcmitype/StillImage" />
        <dc:title></dc:title>
      </cc:Work>
    </rdf:RDF>
  </metadata>
  <g
     inkscape:label="Layer 1"
     inkscape:groupmode="layer"
     id="layer1"
     transform="translate(0,99.875023)">
    <g
       id="g4527"
       transform="matrix(0.84133162,0.23361387,-0.23361387,0.84133162,50.95497,-33.246369)" />
    <path
       style="fill:#000000;stroke-width:0.13442005"
       d="m 407.65943,128.71238 c -0.11095,-0.0421 -0.39224,-0.16173 -0.6252,-0.26608 -0.23306,-0.10427 -0.46336,-0.18947 -0.51197,-0.18947 -0.0486,0 -0.32224,-0.18798 -0.60808,-0.41763 -0.61119,-0.4912 -1.30491,-1.84387 -1.50812,-2.94081 -0.0891,-0.48171 -0.13449,-6.79104 -0.12905,-18.01436 0.01,-18.293907 0.0124,-18.398007 0.63458,-20.566267 0.11666,-0.40664 0.262,-1.0115 0.32277,-1.34418 0.15158,-0.82962 1.26315,-3.65063 1.68066,-4.26505 0.18774,-0.27613 0.34117,-0.6116 0.34117,-0.74547 0,-0.134 0.24199,-0.56387 0.53768,-0.95557 0.29573,-0.39168 0.53769,-0.75621 0.53769,-0.8101 0,-0.25917 1.89688,-2.47949 3.05333,-3.57395 1.05818,-1.00145 3.63361,-2.95745 3.89404,-2.95745 0.0352,0 0.49791,-0.21869 1.02791,-0.48619 0.53,-0.2674 1.28123,-0.60008 1.66936,-0.73929 0.38813,-0.1392 1.03705,-0.37058 1.44205,-0.51413 1.72361,-0.6109 6.00831,-1.3903 7.32884,-1.33317 0.18478,0.007 1.33414,0.002 2.55399,-0.0125 2.94387,-0.0374 6.27286,0.42666 8.58042,1.19616 2.98564,0.99562 4.56081,1.69153 5.49904,2.42953 0.18699,0.14687 0.39284,0.26727 0.45775,0.26727 0.0649,0 0.85822,0.63056 1.76294,1.40123 2.15679,1.83727 4.87165,5.03819 5.12319,6.04049 0.052,0.20706 0.24496,0.60391 0.42907,0.882 0.18402,0.27811 0.44815,0.80246 0.5869,1.16532 1.08853,2.84652 1.38253,3.72312 1.78197,5.31283 0.28122,1.11921 0.28316,1.25411 0.28008,19.762007 l -0.003,18.63511 -0.38156,0.701 c -1.28554,2.36199 -4.06796,2.99044 -6.19471,1.3992 -0.53124,-0.39749 -1.17275,-1.51891 -1.37569,-2.40491 -0.11046,-0.48203 -0.16471,-5.68971 -0.1917,-18.41555 -0.0342,-16.092977 -0.0587,-17.828047 -0.26381,-18.653007 -0.12433,-0.50024 -0.33931,-1.13538 -0.47773,-1.41142 -0.13846,-0.276 -0.41784,-0.92526 -0.62084,-1.44279 -0.20308,-0.51752 -0.51063,-1.12925 -0.68364,-1.35944 -0.17312,-0.23009 -0.35239,-0.56923 -0.39862,-0.75351 -0.0936,-0.37293 -0.73585,-1.21797 -1.90716,-2.50941 -0.79886,-0.88081 -2.75015,-2.43468 -3.05737,-2.43468 -0.0946,0 -0.32605,-0.12136 -0.51453,-0.26953 -0.76029,-0.59806 -3.33581,-1.49366 -5.27202,-1.8333 -2.85133,-0.50016 -7.13214,-0.39611 -9.10134,0.22118 -0.46516,0.14588 -0.95657,0.2659 -1.09206,0.26684 -0.88606,0.004 -4.7623,2.27102 -5.84346,3.41415 -0.38414,0.40619 -0.69844,0.7943 -0.69844,0.86249 0,0.0681 -0.16941,0.33713 -0.37639,0.59764 -0.59599,0.74992 -1.60807,2.8916 -1.92168,4.06638 -0.66594,2.4949 -0.64883,1.96278 -0.69012,21.448627 l -0.0389,18.33971 -0.31801,0.60491 c -0.65679,1.24924 -1.18196,1.82577 -1.99613,2.19113 -0.75898,0.34062 -2.30111,0.57571 -2.724,0.41524 z M 78.464743,128.35407 c -0.48055,-0.16445 -1.088035,-0.46293 -1.349953,-0.66335 -0.576384,-0.44099 -1.472862,-1.90973 -1.472862,-2.41304 0,-0.20013 -0.06428,-0.53302 -0.142858,-0.73966 -0.09838,-0.25871 -0.140361,-5.83531 -0.134881,-17.90202 0.0083,-17.313597 0.01142,-17.542837 0.292474,-18.888717 0.156479,-0.74933 0.327001,-1.60438 0.378952,-1.90008 0.05195,-0.29575 0.166065,-0.66981 0.25362,-0.8313 0.08749,-0.16149 0.159581,-0.43369 0.160023,-0.60488 4.06e-4,-0.17114 0.09127,-0.48455 0.201642,-0.69631 0.110431,-0.21176 0.200785,-0.45121 0.200785,-0.53213 0,-0.23406 0.951956,-2.39328 1.298223,-2.94476 0.173148,-0.27575 0.314826,-0.57106 0.314826,-0.65621 0,-0.6107 3.601034,-5.11252 4.649708,-5.8128 0.237402,-0.15851 0.997156,-0.71865 1.688337,-1.24467 0.69118,-0.52604 1.395115,-0.99965 1.564303,-1.05248 0.169187,-0.0527 0.955557,-0.42383 1.747461,-0.82448 0.791916,-0.40068 1.513583,-0.72855 1.603707,-0.72862 0.09013,-8e-5 0.63454,-0.15927 1.209784,-0.35357 1.054908,-0.35648 1.399469,-0.43224 3.599896,-0.79177 1.999226,-0.32666 2.305158,-0.34961 5.309593,-0.39843 2.896297,-0.0471 3.596677,-4.2e-4 5.847267,0.3892 1.80931,0.31324 4.58097,1.08866 4.72514,1.32192 0.0346,0.0557 0.17595,0.1013 0.31442,0.1013 0.3045,0 2.84693,1.20276 3.54775,1.67836 0.27593,0.18724 0.74715,0.46568 1.04714,0.61872 0.29999,0.15306 0.79551,0.5121 1.10114,0.79789 0.30563,0.28579 0.91003,0.83071 1.34312,1.21094 1.0914,0.9582 3.04354,3.23711 3.04354,3.55296 0,0.0931 0.18715,0.40451 0.41589,0.69192 0.42287,0.53136 1.86925,3.36401 1.86925,3.66086 0,0.0894 0.1766,0.51246 0.39243,0.94003 0.21584,0.42756 0.43376,1.0156 0.48428,1.30677 0.0505,0.29113 0.17589,0.83178 0.27855,1.20147 0.10265,0.36966 0.30814,1.24247 0.45663,1.9396 0.26268,1.23316 0.27,1.75253 0.27,19.164517 0,19.82118 0.0565,18.52923 -0.86379,19.7864 -0.85015,1.16151 -1.9758,1.70942 -3.43767,1.67332 -1.52203,-0.0377 -2.64748,-0.76077 -3.37814,-2.17062 l -0.45281,-0.87373 -0.0258,-17.20577 c -0.0184,-12.160307 -0.0721,-17.616457 -0.18402,-18.606297 -0.43886,-3.88308 -2.26531,-7.24919 -5.45849,-10.05988 -0.60965,-0.53664 -1.25639,-1.03194 -1.43721,-1.10067 -0.18083,-0.0686 -0.36985,-0.19145 -0.42005,-0.27272 -0.26304,-0.4256 -3.42055,-1.63343 -5.06305,-1.93673 -2.50893,-0.4633 -5.917662,-0.61458 -7.471129,-0.33159 -1.654986,0.30152 -2.003076,0.37082 -2.522908,0.50224 -1.144963,0.28951 -1.986511,0.55071 -2.132642,0.66197 -0.08389,0.0639 -0.515426,0.25277 -0.959021,0.41986 -0.996067,0.37516 -3.316275,2.12888 -3.924202,2.96607 -0.241584,0.33271 -0.644792,0.87732 -0.896027,1.21029 -0.742339,0.98385 -1.340007,2.32408 -1.888016,4.23374 -0.127303,0.44358 -0.30244,0.98798 -0.38922,1.20978 -0.116629,0.2981 -0.178646,5.25737 -0.237817,19.020437 -0.04908,11.41355 -0.131345,18.85663 -0.212656,19.236 -0.259118,1.209 -1.450483,2.70393 -2.294946,2.8797 -0.205178,0.0428 -0.667309,0.1652 -1.026967,0.27224 -0.82154,0.24447 -0.786923,0.2467 -1.832852,-0.1112 z m 96.916847,0.1221 c -1.20721,-0.47341 -1.50894,-0.66912 -2.01114,-1.30446 -0.82161,-1.0394 -1.09921,-2.20769 -0.8122,-3.41818 0.17234,-0.72686 0.18053,-30.135327 0.009,-31.118247 -0.23477,-1.34278 -1.18829,-4.53801 -1.67766,-5.62186 -0.26466,-0.58618 -0.48121,-1.10806 -0.48121,-1.15978 0,-0.1756 -1.12708,-2.02079 -1.50537,-2.4644 -0.20709,-0.24298 -0.37651,-0.50266 -0.37651,-0.57734 0,-0.21027 -2.39795,-2.64293 -3.22608,-3.27282 -1.89378,-1.44054 -3.80456,-2.3084 -5.78007,-2.62527 -0.40662,-0.0651 -1.16272,-0.18898 -1.68025,-0.27482 -1.56748,-0.26021 -4.95725,-0.0124 -6.53741,0.47893 -0.34261,0.1065 -0.76603,0.19566 -0.94095,0.19814 -0.1749,0.003 -0.46923,0.0912 -0.65406,0.1969 -0.18482,0.10576 -0.4398,0.19418 -0.5666,0.19691 -0.12682,0.003 -0.51672,0.18625 -0.86645,0.40801 -0.34973,0.22192 -0.73656,0.40327 -0.85961,0.40327 -0.12305,0 -0.95214,0.51386 -1.84242,1.14187 -1.58344,1.11702 -3.12127,2.50958 -3.61539,3.27393 -0.37287,0.57677 -1.12722,1.5967 -1.69253,2.28838 -0.27724,0.33922 -0.50407,0.7096 -0.50407,0.82301 0,0.11344 -0.24195,0.62029 -0.53769,1.12634 -0.29572,0.50605 -0.53804,0.98902 -0.5385,1.07323 -4e-4,0.0842 -0.0962,0.33458 -0.21276,0.55637 -0.11655,0.22193 -0.39079,0.94766 -0.6094,1.61305 -1.17788,3.58521 -1.19228,3.68473 -1.20401,8.31534 -0.0101,4.009387 0.14467,5.905077 0.61077,7.479017 0.0985,0.33268 0.28229,1.05857 0.40839,1.61304 0.20943,0.92101 0.85654,2.82173 1.15511,3.39287 0.81833,1.56549 1.15794,2.1167 1.78091,2.89054 0.40206,0.49944 0.96442,1.13002 1.2497,1.40127 0.59212,0.5631 1.9412,1.59029 2.08857,1.59029 0.0542,0 0.41497,0.1865 0.80171,0.41463 0.9835,0.5799 2.87317,1.2561 5.62639,2.01337 1.53303,0.42166 6.00923,0.38419 7.32588,-0.0614 1.10705,-0.37459 1.50483,-0.48486 1.75701,-0.48708 0.14261,-8.7e-4 0.56174,-0.1818 0.93139,-0.40096 0.36966,-0.21919 0.77333,-0.39973 0.89703,-0.40099 0.12371,-8.7e-4 0.39591,-0.14217 0.60489,-0.31297 0.20899,-0.17089 0.68242,-0.48356 1.05206,-0.69482 0.36966,-0.21127 1.02956,-0.70599 1.46644,-1.09937 1.83432,-1.65168 3.10816,-1.78678 5.15867,-0.54712 0.55898,0.33794 0.81561,0.61654 1.20259,1.30559 0.45603,0.81195 0.49133,0.95448 0.48309,1.95131 -0.006,0.85376 -0.079,1.22769 -0.34929,1.81465 -0.37287,0.80975 -1.64041,2.19284 -2.8038,3.05931 -0.39701,0.2957 -0.99403,0.75602 -1.32672,1.023 -0.33269,0.26694 -0.66894,0.48596 -0.74722,0.48668 -0.0782,6e-4 -0.5017,0.21944 -0.94094,0.48597 -0.43924,0.26657 -1.08334,0.57059 -1.43134,0.67562 -0.34798,0.10501 -0.66912,0.24982 -0.71363,0.32182 -0.0445,0.0721 -0.19287,0.13102 -0.3297,0.13102 -0.13685,0 -0.78351,0.17313 -1.43709,0.38476 -0.65356,0.21153 -1.79318,0.46871 -2.53249,0.5713 -1.59981,0.22191 -5.0802,0.21671 -6.58659,-0.01 -0.59144,-0.089 -1.28707,-0.19022 -1.54583,-0.22515 -0.45538,-0.0614 -2.33627,-0.57943 -3.15886,-0.87007 -0.2218,-0.0783 -0.67547,-0.22413 -1.00816,-0.32402 -1.38096,-0.41449 -3.903,-1.44135 -4.30143,-1.75137 -0.11092,-0.0865 -0.68554,-0.38491 -1.277,-0.66363 -2.4449,-1.15207 -4.52432,-3.00659 -6.38961,-5.69856 -0.37802,-0.54556 -0.73715,-1.12022 -0.79807,-1.277 -0.061,-0.15679 -0.35854,-0.70689 -0.66137,-1.22249 -0.30281,-0.51558 -0.64967,-1.24144 -0.7708,-1.61304 -0.12112,-0.37158 -0.28,-0.75108 -0.35308,-0.84333 -0.073,-0.0924 -0.28022,-0.66692 -0.46034,-1.277 -0.18011,-0.6101 -0.38265,-1.29075 -0.45009,-1.51253 -0.324,-1.06578 -0.68268,-2.49171 -0.79457,-3.15888 -0.0681,-0.4066 -0.25607,-1.49541 -0.41752,-2.41955 -0.32381,-1.85357 -0.5184,-5.910747 -0.38688,-8.066797 0.0832,-1.36348 0.3019,-2.83312 0.59993,-4.031 0.10118,-0.40664 0.27939,-1.25347 0.39608,-1.88188 0.11667,-0.62843 0.38529,-1.62648 0.59692,-2.21793 0.21162,-0.59145 0.46254,-1.34756 0.55756,-1.68024 0.0951,-0.33271 0.3433,-0.95101 0.55169,-1.374 0.20839,-0.42298 0.37889,-0.87833 0.37889,-1.01182 0,-0.1335 0.093,-0.37551 0.20659,-0.53771 0.11364,-0.16223 0.39413,-0.67472 0.62335,-1.13888 0.46971,-0.95119 1.55847,-2.75111 2.10232,-3.47556 1.51573,-2.01899 1.97651,-2.57403 2.73032,-3.28877 1.22608,-1.1626 3.76775,-3.01965 5.02383,-3.67064 1.37602,-0.71318 2.93013,-1.3642 3.25652,-1.3642 0.13981,0 0.37164,-0.089 0.51516,-0.1974 0.14349,-0.10848 0.40099,-0.19938 0.5722,-0.20161 0.17121,-0.003 0.43602,-0.0711 0.58846,-0.15257 0.15245,-0.0815 0.58703,-0.19888 0.96572,-0.26048 0.37868,-0.0617 0.96072,-0.17238 1.2934,-0.24619 2.54866,-0.56465 7.53905,-0.57127 10.41755,-0.0148 2.68432,0.51983 3.59332,0.73555 4.29102,1.0183 0.43786,0.17734 0.86953,0.32263 0.9593,0.32263 0.18852,0 3.03176,1.45824 3.78554,1.94153 1.64826,1.05679 3.89193,3.10306 5.06438,4.61877 0.90107,1.16489 1.69268,2.34701 1.90792,2.84908 0.11094,0.25877 0.43938,0.86476 0.72987,1.34668 0.2905,0.48191 0.6459,1.20777 0.78977,1.61302 1.21651,3.42688 1.70652,5.35586 2.11641,8.33159 0.23185,1.68322 0.24997,2.94901 0.24997,17.474617 0,14.80589 -0.0131,15.68924 -0.24254,16.1976 -0.6721,1.4899 -0.96552,1.8389 -1.97723,2.35172 -0.91728,0.46498 -2.2624,0.62637 -2.9554,0.35462 z m 13.7035,-0.0123 c -1.11685,-0.40963 -1.58203,-0.74511 -2.11418,-1.52472 -0.92877,-1.36064 -0.89374,-0.6077 -0.9351,-20.09952 -0.0323,-15.197577 -0.0109,-17.552337 0.1656,-18.233327 0.11145,-0.43009 0.20263,-1.08653 0.20263,-1.45874 0,-0.42549 0.17735,-1.19197 0.47759,-2.06414 0.26268,-0.76301 0.52672,-1.59902 0.58677,-1.85779 0.13855,-0.59712 1.05735,-2.59338 1.9488,-4.2342 0.54144,-0.99661 2.56292,-3.60439 3.38982,-4.37306 2.67747,-2.48881 6.13633,-4.34791 9.86184,-5.30063 0.48056,-0.12284 1.08545,-0.27715 1.3442,-0.3428 0.47526,-0.12062 3.7372,-0.5156 4.23423,-0.51275 0.14786,7.9e-4 1.29715,-0.01 2.554,-0.0223 2.17457,-0.0223 3.9663,0.14787 6.92262,0.66065 0.92058,0.15976 4.55434,1.40362 5.3722,1.83901 0.33405,0.17783 0.66206,0.32331 0.72892,0.32331 0.18517,0 1.49588,0.88421 2.77061,1.86907 1.38798,1.07236 3.43855,3.11662 4.16839,4.15557 0.29504,0.41996 0.64935,0.91479 0.78738,1.09963 0.59448,0.79604 1.2231,1.88459 1.63009,2.82282 0.79625,1.8355 1.62537,4.21979 1.823,5.24238 0.62943,3.25672 0.60882,2.49417 0.56828,21.036737 -0.0434,19.86408 0.0548,18.24784 -1.1917,19.6117 -1.08208,1.18394 -1.45264,1.35836 -2.87911,1.35496 -0.8778,-0.002 -1.32045,-0.0649 -1.61304,-0.22836 -0.2218,-0.12383 -0.53503,-0.28587 -0.69608,-0.35979 -0.33544,-0.15406 -1.28528,-1.36421 -1.54075,-1.96307 -0.13659,-0.32029 -0.17473,-4.08136 -0.18528,-18.28112 -0.0146,-19.762997 0.0573,-18.047717 -0.87051,-20.767897 -1.03208,-3.02614 -2.28838,-5.02281 -4.33637,-6.8918 -1.33597,-1.21923 -3.67373,-2.66443 -4.73766,-2.92884 -0.2218,-0.0553 -0.8267,-0.24895 -1.34422,-0.43074 -2.10208,-0.73838 -5.73316,-0.9899 -9.00614,-0.6238 -2.39735,0.26813 -4.74785,1.02691 -6.255,2.01921 -0.40417,0.26608 -0.99299,0.64502 -1.30849,0.84209 -1.69433,1.05828 -3.644,3.93945 -4.46785,6.60247 -0.66623,2.15354 -0.67374,2.39114 -0.67238,21.280557 8.7e-4,11.52451 -0.0455,17.7385 -0.13324,17.90263 -0.0741,0.13821 -0.13457,0.3789 -0.13457,0.53471 0,0.93461 -1.59762,3.09489 -2.28881,3.09489 -0.15319,0 -0.44186,0.0802 -0.6415,0.17834 -0.47698,0.23429 -1.58528,0.24916 -2.18501,0.0292 z m 75.06776,-0.1979 c -0.0315,-0.0317 -0.40439,-0.0728 -0.82858,-0.0912 -2.00608,-0.0872 -4.03315,-0.49923 -6.41692,-1.30417 -2.02152,-0.68262 -5.23517,-2.34329 -6.18331,-3.19526 -0.22179,-0.19938 -0.60794,-0.46559 -0.85807,-0.59178 -0.56751,-0.28624 -3.95116,-3.65886 -4.24934,-4.23545 -0.12091,-0.2338 -0.41247,-0.68814 -0.64788,-1.00952 -0.63657,-0.86902 -1.38273,-2.10495 -1.50112,-2.48651 -0.0573,-0.18475 -0.2569,-0.63848 -0.44343,-1.00814 -0.18653,-0.36965 -0.6277,-1.55261 -0.9804,-2.62879 -1.05953,-3.23287 -1.10972,-5.03291 -0.1796,-6.43842 0.73985,-1.11799 2.17892,-1.5861 3.9535,-1.28599 0.82893,0.14019 1.57133,0.53164 2.26262,1.19311 0.84462,0.80812 1.19309,1.60136 1.62578,3.70079 0.13865,0.6728 0.96752,2.32952 2.12605,4.24953 0.26766,0.44359 1.12999,1.44621 1.91627,2.22807 1.27279,1.26561 1.74728,1.6426 3.29335,2.61665 0.90648,0.57112 2.46082,1.31318 3.09167,1.47604 0.36965,0.0956 1.03504,0.26764 1.47862,0.38267 2.33813,0.60637 6.12439,0.51146 8.19962,-0.20556 0.22179,-0.0768 0.61498,-0.1865 0.87372,-0.24445 0.67525,-0.15085 2.37368,-0.97856 3.15844,-1.53934 0.36941,-0.264 0.71983,-0.47997 0.77865,-0.47997 0.45315,0 3.03364,-2.43873 3.91143,-3.69656 1.41104,-2.02193 2.69115,-4.85644 2.91391,-6.45217 0.27025,-1.93581 0.54038,-3.60643 0.59832,-3.70016 0.11542,-0.18675 0.46823,-3.888907 0.46823,-4.912267 0,-1.83013 -0.43296,-5.28321 -0.88475,-7.05633 -0.10477,-0.41146 -0.19071,-0.93282 -0.19071,-1.15858 0,-0.22563 -0.15406,-0.85691 -0.34249,-1.40257 -0.18848,-0.54567 -0.39193,-1.20388 -0.45236,-1.46262 -0.25765,-1.10305 -1.14473,-2.96397 -1.8781,-3.93997 -0.85748,-1.14114 -2.3852,-2.83134 -3.12159,-3.45358 -0.66437,-0.56135 -1.02675,-0.8227 -2.45514,-1.77051 -0.49841,-0.33072 -2.30671,-1.08497 -3.45112,-1.4395 -1.02665,-0.31801 -4.097,-0.70765 -5.03449,-0.6389 -3.49521,0.25637 -6.54695,1.29208 -8.83952,2.99998 -1.20381,0.89679 -3.45777,3.2265 -4.15991,4.29974 -0.70436,1.0766 -1.71957,3.08394 -1.71957,3.40003 0,0.12111 -0.0558,0.27757 -0.12408,0.34782 -0.0683,0.0701 -0.18613,0.43013 -0.26194,0.79979 -0.0758,0.36963 -0.20007,0.94429 -0.27614,1.27697 -0.0761,0.3327 -0.23482,1.07501 -0.35278,1.6496 -0.19531,0.95132 -0.2784,1.11356 -0.92938,1.81467 -0.83164,0.8957 -1.34109,1.11794 -2.75864,1.20329 -1.61951,0.0976 -2.26255,-0.20211 -3.22229,-1.50119 -0.58943,-0.79787 -0.81045,-1.45951 -0.81079,-2.42706 -8.7e-4,-2.31067 1.39211,-6.59728 3.01388,-9.27497 0.3818,-0.63038 1.12516,-1.65551 2.34037,-3.22747 1.32056,-1.70824 5.04853,-4.65721 7.20311,-5.69795 2.3617,-1.14075 3.58241,-1.62654 4.08726,-1.62654 0.13051,0 0.29982,-0.0625 0.37627,-0.13894 0.14025,-0.14018 0.86617,-0.30212 2.46875,-0.55049 0.48055,-0.0746 1.11568,-0.20681 1.41142,-0.29424 0.34101,-0.1008 1.49644,-0.15404 3.15886,-0.14539 2.77478,0.0148 5.10016,0.30133 6.7882,0.83834 0.44359,0.14118 1.13922,0.35851 1.54585,0.48312 0.40661,0.12458 1.04175,0.37048 1.41141,0.54639 0.36966,0.17586 0.94429,0.44219 1.277,0.59162 0.33267,0.14933 0.90733,0.45787 1.27699,0.68538 0.36963,0.22762 0.87816,0.507 1.13002,0.62105 1.02271,0.46308 3.87866,2.951 5.37188,4.67963 1.55549,1.80068 1.96611,2.40278 2.94009,4.311 1.29257,2.5324 1.64072,3.43555 2.00584,5.20386 0.18723,0.90705 0.42553,1.81357 0.52941,2.01446 0.6315,1.22116 1.07043,11.121017 0.63056,14.221677 -0.0891,0.6284 -0.22613,1.7777 -0.30427,2.554 -0.18477,1.83485 -0.30494,2.52508 -0.6667,3.83095 -0.16396,0.59145 -0.35254,1.36341 -0.41937,1.71546 -0.0668,0.35207 -0.27412,0.96279 -0.4607,1.35719 -0.1865,0.39438 -0.33921,0.81127 -0.33921,0.92641 0,0.31842 -1.17556,2.49876 -1.76413,3.27203 -0.28657,0.3765 -0.52104,0.74553 -0.52104,0.82009 0,0.28366 -1.45628,2.0412 -2.82757,3.41248 -0.79564,0.79562 -1.89911,1.73396 -2.49252,2.1195 -0.58565,0.3805 -1.38471,0.91883 -1.77567,1.19627 -0.39096,0.27745 -0.85539,0.54343 -1.03209,0.59106 -0.17659,0.0478 -0.5222,0.2395 -0.7678,0.4264 -0.24569,0.187 -0.628,0.38335 -0.84977,0.43655 -0.22167,0.0533 -0.64522,0.2192 -0.94095,0.36877 -0.29573,0.14959 -0.74939,0.31811 -1.00814,0.37448 -0.25878,0.0562 -0.89392,0.25778 -1.41141,0.44763 -0.51752,0.18997 -1.12545,0.34544 -1.35093,0.34576 -0.22539,2e-4 -0.47192,0.0627 -0.54759,0.1382 -0.24248,0.24247 -1.66755,0.41914 -4.12832,0.51161 -1.31862,0.0495 -2.42329,0.064 -2.45482,0.0325 z m 54.22754,0.056 c -0.0456,-0.0456 -0.43697,-0.10056 -0.86956,-0.12235 -1.2799,-0.064 -3.10226,-0.31741 -3.39072,-0.47181 -0.14761,-0.079 -0.38954,-0.14364 -0.53789,-0.14364 -0.49098,0 -3.55585,-1.10172 -4.99035,-1.79388 -3.25002,-1.56814 -6.07749,-3.88971 -8.65169,-7.10376 -0.93964,-1.17317 -2.32174,-3.47705 -2.5771,-4.29585 -0.0542,-0.17362 -0.26686,-0.67866 -0.47268,-1.12225 -0.20583,-0.44358 -0.43969,-1.06359 -0.51968,-1.37779 -0.0801,-0.31421 -0.21549,-0.82838 -0.30103,-1.14259 -0.53867,-1.97856 -0.94025,-4.68649 -1.33064,-8.97253 -0.18254,-2.005017 -0.14142,-6.168917 0.0754,-7.594747 0.10105,-0.66538 0.22191,-1.72392 0.26875,-2.35233 0.10848,-1.45793 0.31767,-2.54892 0.55359,-2.88636 0.10203,-0.14587 0.18525,-0.42919 0.18525,-0.62973 0,-0.20062 0.0626,-0.52936 0.1392,-0.73077 0.0765,-0.20136 0.1912,-0.70437 0.2546,-1.11772 0.11543,-0.75087 0.59525,-2.14096 1.00208,-2.90227 0.11839,-0.22193 0.21574,-0.5149 0.21622,-0.65134 0,-0.13647 0.11394,-0.40867 0.25246,-0.6049 0.13845,-0.19616 0.41919,-0.68948 0.62403,-1.09609 0.32931,-0.65378 0.80313,-1.40781 1.84377,-2.93423 1.96315,-2.87956 6.2915,-6.22813 10.01019,-7.74423 0.64542,-0.26313 1.30013,-0.47841 1.45494,-0.47841 0.15479,0 0.39885,-0.0889 0.54238,-0.19739 0.1434,-0.10849 0.40099,-0.19938 0.57218,-0.20161 0.17115,-0.003 0.44342,-0.0765 0.6049,-0.16471 1.01384,-0.55358 6.23533,-0.94013 8.8293,-0.65364 2.31802,0.25602 3.05336,0.39871 5.57842,1.08254 0.57931,0.15678 1.74094,0.64174 2.78556,1.16265 0.49705,0.24785 0.96267,0.45064 1.03472,0.45064 0.23159,0 2.73772,1.6266 3.64003,2.36254 1.34927,1.10056 2.71519,2.55976 3.62814,3.87599 0.45694,0.65877 0.88238,1.33339 0.94538,1.49919 0.0629,0.1657 0.17363,0.33785 0.2457,0.38241 0.0721,0.0445 0.29886,0.51925 0.50385,1.05483 0.20507,0.53558 0.42288,1.0416 0.48417,1.12452 0.4806,0.65005 1.38107,4.40681 1.26517,5.27839 -0.3448,2.59305 -0.58638,3.31096 -1.41246,4.1974 -0.82337,0.88353 -1.64308,1.1861 -2.95847,1.09197 -1.21223,-0.0867 -2.05576,-0.58394 -2.77779,-1.63736 -0.55507,-0.80985 -0.67276,-1.18617 -0.86429,-2.76342 -0.1922,-1.5834 -0.88532,-3.70827 -1.73186,-5.30959 -0.62907,-1.18944 -0.95776,-1.62421 -2.09492,-2.77027 -0.74184,-0.74766 -1.59072,-1.48215 -1.88645,-1.63216 -0.29572,-0.15009 -0.99135,-0.51568 -1.54585,-0.81258 -1.86261,-0.99733 -4.02761,-1.49239 -6.98512,-1.59722 -1.5367,-0.0546 -2.12485,-0.0223 -2.75495,0.14564 -0.44067,0.11815 -0.98984,0.21498 -1.22043,0.21498 -0.23059,0 -1.25902,0.36402 -2.28534,0.80889 -2.61482,1.13348 -4.78402,2.79956 -6.40918,4.92265 -1.08699,1.42013 -1.39894,1.88192 -1.57643,2.33365 -0.10154,0.25878 -0.38672,0.83923 -0.63353,1.28993 -0.24669,0.45067 -0.44874,0.92321 -0.44874,1.0501 0,0.21498 -0.2978,1.28199 -0.52874,1.8942 -0.34855,0.92411 -0.54662,1.72041 -0.54662,2.19769 0,0.30169 -0.0842,0.80773 -0.18675,1.12452 -0.10279,0.31678 -0.22514,0.87841 -0.27173,1.24807 -0.0466,0.36966 -0.13969,0.97456 -0.20681,1.34422 -0.39753,2.18925 -0.26917,7.315837 0.24906,9.949797 0.14514,0.73781 0.33467,1.88589 0.42106,2.55125 0.10526,0.81059 0.30783,1.55568 0.61392,2.25806 0.25124,0.57654 0.45683,1.13999 0.45683,1.25208 0,0.19913 1.14251,2.20774 1.63529,2.87481 0.96671,1.30868 1.45634,1.85042 2.51085,2.77806 1.23582,1.08713 3.06196,2.25688 4.41901,2.83064 1.42989,0.60456 3.18472,1.1258 4.00313,1.18905 2.19827,0.1699 3.55645,0.16719 4.80348,-0.01 2.35533,-0.33352 4.7177,-0.93111 5.13688,-1.29944 0.0701,-0.0617 0.24198,-0.1122 0.38155,-0.1122 0.1397,0 0.82102,-0.27219 1.5142,-0.6049 0.69317,-0.33268 1.29118,-0.60487 1.32895,-0.60487 0.13771,0 2.65497,-1.75672 3.53705,-2.46852 1.74278,-1.40628 3.90115,-3.8049 5.33849,-5.93275 0.34961,-0.51751 0.7477,-1.06268 0.88466,-1.21146 0.13696,-0.14885 0.36973,-0.54194 0.51722,-0.87373 0.14761,-0.33176 0.42266,-0.81155 0.61146,-1.06619 0.18873,-0.25464 0.3433,-0.5143 0.3433,-0.57702 0,-0.0627 0.24199,-0.44157 0.53769,-0.84187 0.2957,-0.40032 0.53765,-0.79811 0.53765,-0.88403 0,-0.0859 0.20507,-0.49676 0.45584,-0.91306 0.5058,-0.83977 3.0391,-6.009377 3.0391,-6.201697 0,-0.0671 0.18155,-0.42956 0.40327,-0.80574 0.22166,-0.37615 0.40324,-0.7409 0.40324,-0.81054 0,-0.0696 0.24173,-0.59626 0.53741,-1.17025 0.29555,-0.57402 0.53751,-1.11912 0.53768,-1.21139 0,-0.0921 0.21201,-0.57379 0.47073,-1.07005 0.25878,-0.49628 0.4705,-0.98485 0.4705,-1.0857 0,-0.10081 0.23751,-0.63417 0.52779,-1.18516 0.2903,-0.551 0.56463,-1.16943 0.6096,-1.37429 0.045,-0.20482 0.27882,-0.70219 0.51958,-1.10525 0.24075,-0.40306 0.54586,-1.01951 0.67796,-1.36992 0.13201,-0.35041 0.29952,-0.67378 0.37204,-0.71859 0.0726,-0.0448 0.33129,-0.48398 0.57511,-0.97594 1.98676,-4.00902 4.52493,-7.07284 8.21083,-9.91139 0.60187,-0.46353 3.32675,-1.99469 3.8024,-2.13667 0.16915,-0.0506 0.5623,-0.23751 0.87373,-0.41554 0.31145,-0.17808 0.65931,-0.32451 0.77307,-0.3254 0.11368,-8.7e-4 0.44408,-0.1226 0.73411,-0.27044 0.29003,-0.14785 0.64634,-0.26885 0.7918,-0.26885 0.14538,0 0.48049,-0.0659 0.74449,-0.14662 0.26402,-0.0808 0.69174,-0.21152 0.95048,-0.29115 0.25877,-0.0795 0.6217,-0.16098 0.80653,-0.18105 0.18477,-0.0198 0.69897,-0.10551 1.14256,-0.18947 1.26974,-0.24099 5.47353,-0.3256 6.721,-0.13523 2.67065,0.40744 4.02309,0.70797 5.42402,1.20537 1.22094,0.4335 3.81795,1.67555 4.70199,2.2488 0.41912,0.27174 1.18543,0.76906 1.70298,1.10513 1.80897,1.17467 5.54334,5.18996 6.10306,6.56219 0.0971,0.23777 0.26914,0.50937 0.3825,0.60346 0.52554,0.43616 2.2003,4.51725 2.59811,6.33114 0.1491,0.67974 0.35257,1.53832 0.45227,1.90797 0.98255,3.64407 1.12351,11.727827 0.29649,17.004127 -0.10996,0.70236 -0.26542,1.4473 -0.34519,1.65543 -0.0798,0.20805 -0.14588,0.60128 -0.14662,0.87372 -0.003,1.05831 -1.29275,5.10846 -1.93542,6.0796 -0.19145,0.28933 -0.34893,0.63323 -0.34992,0.76417 -0.002,0.22316 -1.86245,3.00906 -2.75434,4.12373 -0.55969,0.69948 -1.95843,2.11104 -2.64892,2.67319 -1.89638,1.54387 -6.26794,4.02702 -7.70752,4.37803 -0.29209,0.0713 -0.86291,0.25572 -1.2685,0.41 -0.40557,0.15431 -0.90256,0.28052 -1.10441,0.28052 -0.20186,0 -0.56562,0.0862 -0.8084,0.19121 -0.72792,0.31549 -3.12448,0.54887 -5.48217,0.53384 -2.3772,-0.0148 -3.86288,-0.15951 -5.22067,-0.50744 -0.46746,-0.11963 -0.94115,-0.21771 -1.05258,-0.21771 -0.11145,0 -0.59472,-0.18155 -1.0739,-0.40326 -0.4792,-0.22192 -0.95137,-0.40327 -1.04934,-0.40327 -0.37374,0 -3.00839,-1.41042 -4.10293,-2.19644 -2.48962,-1.78788 -3.171,-2.45072 -4.80923,-4.67808 -1.21523,-1.65228 -2.86728,-4.88333 -3.28922,-6.43305 -0.19319,-0.70922 -0.23777,-3.05602 -0.0751,-3.93726 0.15728,-0.85211 0.73251,-1.77958 1.21999,-1.96742 0.16395,-0.0632 0.55945,-0.2234 0.87892,-0.35588 0.77696,-0.32246 2.37151,-0.29555 3.16009,0.0533 0.31509,0.13944 0.91067,0.57984 1.32356,0.97881 0.70889,0.68506 0.76638,0.79064 1.0337,1.89914 0.93689,3.88512 4.36965,7.90413 7.95673,9.31551 1.25649,0.49438 4.19527,1.00054 5.30155,0.9131 0.14788,-0.0123 0.72254,-0.0547 1.27701,-0.0958 0.55447,-0.0412 1.3589,-0.16719 1.78763,-0.28015 0.42869,-0.11294 0.89123,-0.20558 1.02783,-0.20558 0.13647,0 0.69315,-0.18748 1.23683,-0.41671 0.54365,-0.2291 1.21532,-0.50109 1.49256,-0.60423 1.21125,-0.45062 4.10041,-2.59183 5.22135,-3.86967 1.33398,-1.52068 2.96025,-4.40597 3.41829,-6.06464 0.12259,-0.44357 0.30801,-1.05049 0.4122,-1.34867 0.10427,-0.2982 0.18948,-0.74439 0.18948,-0.99152 0,-0.24718 0.0874,-1.00121 0.19392,-1.67576 0.54521,-3.44719 0.64909,-4.69131 0.57273,-6.859467 -0.12384,-3.51503 -0.47267,-5.71053 -1.56142,-9.82525 -0.63752,-2.40945 -2.54854,-5.50538 -4.49816,-7.28722 -0.87306,-0.79791 -2.32168,-1.92056 -2.47825,-1.92056 -0.0585,0 -0.47619,-0.24049 -0.92832,-0.53418 -2.90633,-1.88848 -7.79524,-2.50627 -11.77635,-1.48805 -0.56425,0.1444 -1.14414,0.32565 -1.28868,0.403 -0.14464,0.0773 -0.38033,0.14068 -0.52406,0.14068 -0.32494,0 -2.08239,0.9647 -3.26747,1.79358 -1.26736,0.88641 -3.40343,2.82393 -3.7664,3.41634 -0.16941,0.27661 -0.55212,0.81499 -0.85035,1.19643 -0.96622,1.23583 -1.86948,2.61606 -2.88942,4.41529 -1.16367,2.05281 -3.76891,7.49637 -3.76891,7.87502 0,0.13225 -0.0553,0.27482 -0.12285,0.31657 -0.14043,0.0867 -0.68374,1.16958 -0.68374,1.36276 0,0.14961 -0.69768,1.83254 -1.00033,2.412997 -0.11419,0.21919 -0.20805,0.47859 -0.20854,0.57651 0,0.0981 -0.24273,0.6373 -0.53853,1.19861 -0.29572,0.56132 -0.53769,1.07876 -0.53769,1.14991 0,0.12484 -0.37279,0.91168 -1.92364,4.06001 -1.49442,3.03374 -3.09017,5.80988 -4.40417,7.66193 -0.36715,0.51752 -0.81208,1.15266 -0.98867,1.41144 -0.50905,0.74582 -4.3473,4.47784 -5.41574,5.26589 -2.36146,1.74166 -3.01386,2.20721 -3.36244,2.39932 -0.20458,0.1127 -0.80576,0.46051 -1.33618,0.77291 -0.5304,0.31239 -1.04565,0.56801 -1.14497,0.56801 -0.0993,0 -0.3912,0.13945 -0.64867,0.30979 -0.66542,0.44045 -2.36325,1.16882 -2.72446,1.16882 -0.16768,0 -0.42427,0.0809 -0.57011,0.17956 -0.36115,0.24471 -1.66715,0.65756 -2.0798,0.65746 -0.18477,-5e-5 -0.45704,0.0639 -0.60491,0.14216 -0.53096,0.2808 -2.59943,0.51607 -5.11209,0.58143 -1.40698,0.0366 -2.5955,0.0292 -2.64117,-0.0173 z"
       id="path4509"
       inkscape:connector-curvature="0" />
  </g>
</svg>
